<svg xmlns="http://www.w3.org/2000/svg" viewBox="0 0 100 100" fill="none" stroke="#593c47" stroke-width="2.5" stroke-linecap="round" stroke-linejoin="round">
  <!-- 手繪風格對話泡泡 -->
  <path d="M25,30 C22,30 20,33 20,35 L20,65 C20,68 22,70 25,70 L55,70 C57,70 58,72 60,75 L65,82 C67,85 70,83 70,80 L70,70 L75,70 C78,70 80,68 80,65 L80,35 C80,32 78,30 75,30 Z" fill="#F2E63D" style="filter: drop-shadow(2px 2px 3px rgba(0,0,0,0.2));" />
  
  <!-- 對話線條 -->
  <path d="M30,45 L70,45 M30,55 L60,55" stroke="#593c47" stroke-width="2" />
  
  <!-- 裝飾元素 -->
  <circle cx="35" cy="35" r="3" fill="#f25c05" />
  <circle cx="45" cy="35" r="3" fill="#f25c05" />
  <circle cx="55" cy="35" r="3" fill="#f25c05" />
  
  <!-- 小人物/使用者 -->
  <circle cx="20" cy="85" r="5" fill="#593c47" />
  <path d="M20,90 L20,95" stroke="#593c47" stroke-width="2" />
  <path d="M15,92 L20,95 L25,92" stroke="#593c47" stroke-width="2" />
</svg>