<svg xmlns="http://www.w3.org/2000/svg" viewBox="0 0 100 100" fill="none" stroke="#593c47" stroke-width="2.5" stroke-linecap="round" stroke-linejoin="round">
  <!-- 手繪風格資料庫 -->
  <path d="M35,25 C35,20 40,15 50,15 C60,15 65,20 65,25 L65,55 C65,60 60,65 50,65 C40,65 35,60 35,55 Z" fill="#F2E63D" style="filter: drop-shadow(2px 2px 3px rgba(0,0,0,0.2));" />
  
  <!-- 資料庫層次 -->
  <path d="M35,25 C35,30 40,35 50,35 C60,35 65,30 65,25" />
  <path d="M35,40 C35,45 40,50 50,50 C60,50 65,45 65,40" />
  
  <!-- 資料外洩 -->
  <path d="M45,65 L30,85 M50,65 L50,85 M55,65 L70,85" stroke="#f25c05" stroke-width="3" stroke-linecap="round" />
  
  <!-- 資料符號 -->
  <path d="M40,25 L45,25 M50,25 L55,25 M40,40 L45,40 M50,40 L55,40 M40,55 L45,55 M50,55 L55,55" stroke="#593c47" stroke-width="2" />
  
  <!-- 警示圖標 -->
  <circle cx="70" cy="40" r="10" fill="#f24405" stroke="#593c47" stroke-width="1.5" />
  <text x="67" y="44" font-family="sans-serif" font-size="12" font-weight="bold" stroke="none" fill="white">!</text>
</svg>