<svg xmlns="http://www.w3.org/2000/svg" viewBox="0 0 100 100" fill="none" stroke="#593c47" stroke-width="2.5" stroke-linecap="round" stroke-linejoin="round">
  <!-- 手繪風格閃電 -->
  <path d="M45,15 L35,45 L50,45 L40,85" stroke="#f24405" stroke-width="5" fill="#F2E63D" style="filter: drop-shadow(3px 3px 4px rgba(0,0,0,0.25));" />
  
  <!-- 雲朵 -->
  <path d="M20,35 C20,30 25,25 30,25 C32,25 34,26 35,28 C36,23 40,20 45,20 C50,20 55,25 55,30 C60,25 70,30 65,38" stroke="#593c47" stroke-width="2" fill="white" />
  
  <!-- 硬碟/伺服器 -->
  <rect x="15" y="55" width="30" height="20" rx="3" ry="3" fill="#F2C53D" stroke="#593c47" stroke-width="2" />
  <rect x="20" y="60" width="5" height="5" fill="#593c47" />
  <rect x="20" y="67" width="15" height="3" fill="#593c47" />
  
  <!-- 損壞指示 -->
  <path d="M55,65 C55,55 75,55 75,65" stroke="#593c47" stroke-width="2" fill="none" stroke-dasharray="4,2" />
  <line x1="60" y1="70" x2="70" y2="60" stroke="#f24405" stroke-width="2" />
  <line x1="60" y1="60" x2="70" y2="70" stroke="#f24405" stroke-width="2" />
</svg>