<svg xmlns="http://www.w3.org/2000/svg" viewBox="0 0 100 100" fill="none" stroke="#593c47" stroke-width="2.5" stroke-linecap="round" stroke-linejoin="round">
  <!-- 手繪風格公司/組織建築 -->
  <path d="M20,40 C20,38 22,35 25,35 L75,35 C78,35 80,38 80,40 L80,80 C80,83 78,85 75,85 L25,85 C22,85 20,83 20,80 Z" fill="#F2E63D" style="filter: drop-shadow(2px 2px 3px rgba(0,0,0,0.2));" />
  
  <!-- 建築門窗 -->
  <rect x="45" y="75" width="10" height="10" fill="white" stroke="#593c47" stroke-width="1.5" />
  <rect x="30" y="55" width="10" height="10" fill="white" stroke="#593c47" stroke-width="1.5" />
  <rect x="60" y="55" width="10" height="10" fill="white" stroke="#593c47" stroke-width="1.5" />
  
  <!-- 內部人物 (威脅來源) -->
  <circle cx="50" cy="30" r="8" fill="#f25c05" stroke="#593c47" stroke-width="1.5" />
  <path d="M43,45 C43,40 57,40 57,45" stroke="#f25c05" stroke-width="3" />
  
  <!-- 資料/文件 -->
  <rect x="40" y="50" width="20" height="15" rx="2" ry="2" fill="white" stroke="#593c47" stroke-width="1.5" />
  <path d="M43,55 L57,55 M43,60 L57,60" stroke="#593c47" stroke-width="1" />
  
  <!-- 偷竊/外洩指示 -->
  <path d="M55,48 C60,43 65,43 70,48" stroke="#f24405" stroke-width="2" stroke-dasharray="3,2" />
  <path d="M65,42 L70,48 L75,42" stroke="#f24405" stroke-width="2" />
</svg>